<?xml version="1.0" encoding="UTF-8" standalone="no"?>
<!-- Created with Inkscape (http://www.inkscape.org/) -->

<svg
   xmlns:dc="http://purl.org/dc/elements/1.1/"
   xmlns:cc="http://creativecommons.org/ns#"
   xmlns:rdf="http://www.w3.org/1999/02/22-rdf-syntax-ns#"
   xmlns:svg="http://www.w3.org/2000/svg"
   xmlns="http://www.w3.org/2000/svg"
   xmlns:sodipodi="http://sodipodi.sourceforge.net/DTD/sodipodi-0.dtd"
   xmlns:inkscape="http://www.inkscape.org/namespaces/inkscape"
   width="312.26602"
   height="277"
   id="svg2"
   version="1.1"
   inkscape:version="0.47 r22583"
   sodipodi:docname="matplotlib_interface.svg">
  <defs
     id="defs4">
    <marker
       inkscape:stockid="Arrow1Lend"
       orient="auto"
       refY="0"
       refX="0"
       id="Arrow1Lend"
       style="overflow:visible">
      <path
         id="path3684"
         d="M 0,0 5,-5 -12.5,0 5,5 0,0 z"
         style="fill-rule:evenodd;stroke:#000000;stroke-width:1pt;marker-start:none"
         transform="matrix(-0.8,0,0,-0.8,-10,0)" />
    </marker>
    <marker
       inkscape:stockid="SquareL"
       orient="auto"
       refY="0"
       refX="0"
       id="SquareL"
       style="overflow:visible">
      <path
         id="path3752"
         d="M -5,-5 -5,5 5,5 5,-5 -5,-5 z"
         style="fill-rule:evenodd;stroke:#000000;stroke-width:1pt;marker-start:none"
         transform="scale(0.8,0.8)" />
    </marker>
    <marker
       inkscape:stockid="SquareM"
       orient="auto"
       refY="0"
       refX="0"
       id="SquareM"
       style="overflow:visible">
      <path
         id="path3755"
         d="M -5,-5 -5,5 5,5 5,-5 -5,-5 z"
         style="fill-rule:evenodd;stroke:#000000;stroke-width:1pt;marker-start:none"
         transform="scale(0.4,0.4)" />
    </marker>
    <inkscape:perspective
       sodipodi:type="inkscape:persp3d"
       inkscape:vp_x="0 : 526.18109 : 1"
       inkscape:vp_y="0 : 1000 : 0"
       inkscape:vp_z="744.09448 : 526.18109 : 1"
       inkscape:persp3d-origin="372.04724 : 350.78739 : 1"
       id="perspective10" />
    <inkscape:perspective
       id="perspective2838"
       inkscape:persp3d-origin="0.5 : 0.33333333 : 1"
       inkscape:vp_z="1 : 0.5 : 1"
       inkscape:vp_y="0 : 1000 : 0"
       inkscape:vp_x="0 : 0.5 : 1"
       sodipodi:type="inkscape:persp3d" />
    <inkscape:perspective
       id="perspective3660"
       inkscape:persp3d-origin="0.5 : 0.33333333 : 1"
       inkscape:vp_z="1 : 0.5 : 1"
       inkscape:vp_y="0 : 1000 : 0"
       inkscape:vp_x="0 : 0.5 : 1"
       sodipodi:type="inkscape:persp3d" />
    <inkscape:perspective
       id="perspective5060"
       inkscape:persp3d-origin="0.5 : 0.33333333 : 1"
       inkscape:vp_z="1 : 0.5 : 1"
       inkscape:vp_y="0 : 1000 : 0"
       inkscape:vp_x="0 : 0.5 : 1"
       sodipodi:type="inkscape:persp3d" />
    <inkscape:perspective
       id="perspective5104"
       inkscape:persp3d-origin="0.5 : 0.33333333 : 1"
       inkscape:vp_z="1 : 0.5 : 1"
       inkscape:vp_y="0 : 1000 : 0"
       inkscape:vp_x="0 : 0.5 : 1"
       sodipodi:type="inkscape:persp3d" />
    <marker
       inkscape:stockid="SquareL"
       orient="auto"
       refY="0"
       refX="0"
       id="SquareL-5"
       style="overflow:visible">
      <path
         id="path3752-8"
         d="M -5,-5 -5,5 5,5 5,-5 -5,-5 z"
         style="fill-rule:evenodd;stroke:#000000;stroke-width:1pt;marker-start:none"
         transform="scale(0.8,0.8)" />
    </marker>
    <marker
       inkscape:stockid="SquareL"
       orient="auto"
       refY="0"
       refX="0"
       id="marker5110"
       style="overflow:visible">
      <path
         id="path5112"
         d="M -5,-5 -5,5 5,5 5,-5 -5,-5 z"
         style="fill-rule:evenodd;stroke:#000000;stroke-width:1pt;marker-start:none"
         transform="scale(0.8,0.8)" />
    </marker>
    <clipPath
       id="clipPath5856"
       clipPathUnits="userSpaceOnUse">
      <path
         id="path5858"
         d="m 61.714286,39.348105 350.134114,0 0,224.711895 -350.134114,0 0,-224.711895 z" />
    </clipPath>
    <clipPath
       id="clipPath5838"
       clipPathUnits="userSpaceOnUse">
      <path
         id="path5840"
         d="m 61.714286,39.348105 350.134114,0 0,224.711895 -350.134114,0 0,-224.711895 z" />
    </clipPath>
    <clipPath
       id="clipPath5820"
       clipPathUnits="userSpaceOnUse">
      <path
         id="path5822"
         d="m 61.714286,39.348105 350.134114,0 0,224.711895 -350.134114,0 0,-224.711895 z" />
    </clipPath>
    <clipPath
       id="clipPath5810"
       clipPathUnits="userSpaceOnUse">
      <path
         id="path5812"
         d="m -184,-236 1472,0 0,1165 -1472,0 0,-1165 z" />
    </clipPath>
    <clipPath
       id="clipPath5788"
       clipPathUnits="userSpaceOnUse">
      <path
         id="path5790"
         d="m 61.714286,39.348105 350.134114,0 0,224.711895 -350.134114,0 0,-224.711895 z" />
    </clipPath>
    <clipPath
       id="clipPath5778"
       clipPathUnits="userSpaceOnUse">
      <path
         id="path5780"
         d="m -184,-236 1472,0 0,1165 -1472,0 0,-1165 z" />
    </clipPath>
    <clipPath
       id="clipPath5756"
       clipPathUnits="userSpaceOnUse">
      <path
         id="path5758"
         d="m 61.714286,39.348105 350.134114,0 0,224.711895 -350.134114,0 0,-224.711895 z" />
    </clipPath>
    <clipPath
       id="clipPath5734"
       clipPathUnits="userSpaceOnUse">
      <path
         id="path5736"
         d="m 61.714286,39.348105 350.134114,0 0,224.711895 -350.134114,0 0,-224.711895 z" />
    </clipPath>
    <clipPath
       id="clipPath5716"
       clipPathUnits="userSpaceOnUse">
      <path
         id="path5718"
         d="m 61.714286,39.348105 350.134114,0 0,224.711895 -350.134114,0 0,-224.711895 z" />
    </clipPath>
    <clipPath
       id="clipPath5698"
       clipPathUnits="userSpaceOnUse">
      <path
         id="path5700"
         d="m 61.714286,39.348105 350.134114,0 0,224.711895 -350.134114,0 0,-224.711895 z" />
    </clipPath>
    <clipPath
       id="clipPath5680"
       clipPathUnits="userSpaceOnUse">
      <path
         id="path5682"
         d="m 61.714286,39.348105 350.134114,0 0,224.711895 -350.134114,0 0,-224.711895 z" />
    </clipPath>
    <clipPath
       id="clipPath5662"
       clipPathUnits="userSpaceOnUse">
      <path
         id="path5664"
         d="m 61.714286,39.348105 350.134114,0 0,224.711895 -350.134114,0 0,-224.711895 z" />
    </clipPath>
    <clipPath
       id="clipPath5644"
       clipPathUnits="userSpaceOnUse">
      <path
         id="path5646"
         d="m 61.714286,39.348105 350.134114,0 0,224.711895 -350.134114,0 0,-224.711895 z" />
    </clipPath>
    <clipPath
       id="clipPath5634"
       clipPathUnits="userSpaceOnUse">
      <path
         id="path5636"
         d="m 61.714286,39.348105 350.134114,0 0,224.711895 -350.134114,0 0,-224.711895 z" />
    </clipPath>
    <inkscape:perspective
       id="perspective5622"
       inkscape:persp3d-origin="0.5 : 0.33333333 : 1"
       inkscape:vp_z="1 : 0.5 : 1"
       inkscape:vp_y="0 : 1000 : 0"
       inkscape:vp_x="0 : 0.5 : 1"
       sodipodi:type="inkscape:persp3d" />
    <inkscape:perspective
       id="perspective4886"
       inkscape:persp3d-origin="0.5 : 0.33333333 : 1"
       inkscape:vp_z="1 : 0.5 : 1"
       inkscape:vp_y="0 : 1000 : 0"
       inkscape:vp_x="0 : 0.5 : 1"
       sodipodi:type="inkscape:persp3d" />
  </defs>
  <sodipodi:namedview
     id="base"
     pagecolor="#ffffff"
     bordercolor="#666666"
     borderopacity="1.0"
     inkscape:pageopacity="0.0"
     inkscape:pageshadow="2"
     inkscape:zoom="1"
     inkscape:cx="22.291331"
     inkscape:cy="206.00741"
     inkscape:document-units="px"
     inkscape:current-layer="layer1"
     showgrid="false"
     inkscape:window-width="1251"
     inkscape:window-height="841"
     inkscape:window-x="388"
     inkscape:window-y="70"
     inkscape:window-maximized="0" />
  <metadata
     id="metadata7">
    <rdf:RDF>
      <cc:Work
         rdf:about="">
        <dc:format>image/svg+xml</dc:format>
        <dc:type
           rdf:resource="http://purl.org/dc/dcmitype/StillImage" />
        <dc:title />
      </cc:Work>
    </rdf:RDF>
  </metadata>
  <g
     inkscape:label="Layer 1"
     inkscape:groupmode="layer"
     id="layer1"
     transform="translate(-127.51324,-57.339953)">
    <g
       id="g2824"
       transform="matrix(0.56898904,0,0,0.56898904,117.45195,26.159276)">
      <rect
         ry="28.758858"
         y="58.813404"
         x="19.129148"
         height="131.95241"
         width="203.16817"
         id="rect2816"
         style="fill:none;stroke:#000000;stroke-width:2.89280581" />
      <text
         id="text2818"
         y="114.35016"
         x="120.64487"
         style="font-size:40px;font-style:normal;font-weight:normal;fill:#000000;fill-opacity:1;stroke:none;font-family:Bitstream Vera Sans"
         xml:space="preserve"><tspan
           style="text-align:center;text-anchor:middle"
           y="114.35016"
           x="120.64487"
           id="tspan2820"
           sodipodi:role="line">C++</tspan><tspan
           style="text-align:center;text-anchor:middle"
           id="tspan2822"
           y="164.35016"
           x="120.64487"
           sodipodi:role="line">libnsound</tspan></text>
    </g>
    <g
       id="g2868"
       transform="matrix(0.56898904,0,0,0.56898904,117.45196,46.850842)">
      <rect
         ry="28.758858"
         y="212.10405"
         x="19.129145"
         height="131.95241"
         width="203.16817"
         id="rect2816-6"
         style="fill:none;stroke:#000000;stroke-width:2.89280581" />
      <text
         id="text2818-4"
         y="267.64081"
         x="120.64487"
         style="font-size:40px;font-style:normal;font-weight:normal;fill:#000000;fill-opacity:1;stroke:none;font-family:Bitstream Vera Sans"
         xml:space="preserve"><tspan
           style="text-align:center;text-anchor:middle"
           y="267.64081"
           x="120.64487"
           id="tspan2820-8"
           sodipodi:role="line">C</tspan><tspan
           style="text-align:center;text-anchor:middle"
           id="tspan2822-0"
           y="317.64081"
           x="120.64487"
           sodipodi:role="line">libpython</tspan></text>
    </g>
    <text
       xml:space="preserve"
       style="font-size:22.75956154px;font-style:normal;font-weight:normal;fill:#000000;fill-opacity:1;stroke:none;font-family:Bitstream Vera Sans"
       x="188.70743"
       y="154.20869"
       id="text2874"><tspan
         sodipodi:role="line"
         id="tspan2876"
         x="188.70743"
         y="154.20869"
         style="font-size:9.10382462px">Plotter.h</tspan></text>
    <g
       id="g5090"
       transform="matrix(0.56898904,0,0,0.56898904,-26.201905,116.48629)">
      <rect
         ry="28.758858"
         y="249.47969"
         x="271.60126"
         height="131.95241"
         width="203.16817"
         id="rect2816-6-8"
         style="fill:none;stroke:#000000;stroke-width:2.89280581" />
      <text
         id="text2818-4-3"
         y="305.01645"
         x="373.11697"
         style="font-size:40px;font-style:normal;font-weight:normal;fill:#000000;fill-opacity:1;stroke:none;font-family:Bitstream Vera Sans"
         xml:space="preserve"><tspan
           style="text-align:center;text-anchor:middle"
           y="305.01645"
           x="373.11697"
           id="tspan2820-8-3"
           sodipodi:role="line">Python</tspan><tspan
           style="text-align:center;text-anchor:middle"
           id="tspan2822-0-1"
           y="355.01645"
           x="373.11697"
           sodipodi:role="line">Matplotlib</tspan></text>
    </g>
    <g
       transform="matrix(0.44277048,0,0,-0.48175859,248.2715,198.91885)"
       inkscape:label="matplotlib_plot"
       id="g5624">
      <path
         id="path5626"
         style="fill:#ffffff;fill-opacity:1;fill-rule:nonzero;stroke:#ffffff;stroke-width:1;stroke-linecap:square;stroke-linejoin:round;stroke-miterlimit:10;stroke-opacity:1;stroke-dasharray:none"
         d="m 0,0 432,0 0,293.4 -432,0 L 0,0" />
      <path
         id="path5628"
         style="fill:#ffffff;fill-opacity:1;fill-rule:nonzero;stroke:none"
         d="m 61.714286,39.348105 350.134114,0 0,224.711895 -350.134114,0 0,-224.711895" />
      <g
         id="g5630">
        <g
           clip-path="url(#clipPath5634)"
           id="g5632">
          <path
             id="path5638"
             style="fill:none;stroke:#0000ff;stroke-width:1;stroke-linecap:square;stroke-linejoin:round;stroke-miterlimit:10;stroke-opacity:1;stroke-dasharray:none"
             d="m 77.629473,151.70405 3.823468,0.48984 2.548979,-0.48984 2.548979,-0.68911 2.548979,0.18611 3.823468,1.54206 1.274489,0.0865 1.27449,-0.37254 3.823468,-2.29216 1.274487,-0.12227 1.27449,0.5538 3.82347,3.34721 1.27449,0.16934 1.27449,-0.80871 4.14209,-4.98353 1.27449,0.11264 1.91173,2.63448 2.8676,5.13221 1.27449,0.30568 0.95587,-1.05288 1.27449,-2.86421 2.54898,-6.60536 0.95587,-1.00786 1.27449,0.93763 1.27449,3.4395 2.8676,10.11142 0.63724,1.09966 1.27449,-0.38584 1.27449,-3.89937 3.82347,-16.35959 1.27449,0.55325 1.27449,5.19008 3.50484,20.6802 0.63725,1.15665 0.95587,-1.16965 0.95586,-4.60286 1.59311,-12.86213 1.91174,-14.56927 0.95587,-2.84981 0.95586,1.55015 0.95587,5.92204 1.59311,16.39314 1.91174,18.38711 0.63724,2.93879 1.27449,-1.42256 0.95587,-7.48469 1.59311,-20.52544 1.91173,-22.79634 0.63725,-3.59238 1.27449,1.86579 0.95586,9.29253 1.59312,25.24662 1.91173,27.76473 0.63724,4.31305 1.27449,-2.39616 0.95587,-11.33323 1.91174,-37.10158 1.59311,-26.62493 0.63724,-5.08598 1.27449,3.01426 0.95587,13.57788 1.91173,44.00065 1.59311,31.25871 0.95587,6.95511 0.63725,-1.86074 0.63724,-7.10434 0.95587,-19.14226 3.50484,-84.014979 0.63725,-3.826198 0.63724,2.251597 0.63725,8.26733 0.95586,22.06828 3.50485,95.60494 0.63725,4.21584 0.63724,-2.67035 0.63724,-9.44984 1.27449,-35.47277 2.86761,-91.402811 0.63724,-8.21382 0.31862,-1.341733 0.63725,3.104611 0.63724,10.609667 1.27449,39.415056 2.8676,100.36633 0.63725,8.85167 0.31862,1.39172 0.63724,-3.53906 0.63725,-11.70036 1.27449,-43.02319 2.8676,-108.268206 0.63724,-9.368581 0.31863,-1.413981 0.63724,3.956211 0.63725,12.674142 1.27449,46.133515 2.8676,114.73563 0.63724,9.73838 0.31862,1.40665 0.63725,-4.33752 0.63724,-13.4853 1.27449,-48.5964 2.8676,-119.448336 0.63725,-9.941704 0.31862,-1.36963 0.31862,1.105351 0.63725,9.490882 0.95587,30.340019 3.82346,156.453368 0.63725,5.09411 0.31862,-1.21493 0.63725,-9.81465 0.95586,-30.96259 3.82347,-157.369939 0.63725,-4.921429 0.31862,1.304603 0.63724,9.967624 0.95587,31.039887 3.82347,155.506854 0.63724,4.66476 0.31863,-1.36962 0.63724,-9.94171 0.95587,-30.56784 3.82347,-150.96219 0.31862,-3.355953 0.95586,4.174526 0.95587,24.001002 1.59311,67.679825 1.91174,75.17725 0.95587,15.78057 0.95586,-4.19292 0.95587,-22.88464 1.59311,-63.88026 1.91174,-70.266351 0.95586,-14.523313 0.95587,4.123979 0.95587,21.434108 1.59311,59.231577 1.91173,64.519 0.95587,13.12806 0.95587,-3.9733 0.95586,-19.72032 1.91174,-65.51991 1.59311,-46.63139 0.95587,-11.655338 0.95586,3.75099 0.95587,17.822548 1.91173,58.57474 1.59312,41.27593 0.95586,10.16333 0.95587,-3.4706 0.95587,-15.82246 1.91173,-51.44325 1.59311,-35.89153 0.95587,-8.704243 0.95587,3.147883 0.95587,13.79835 1.91173,44.3841 1.59311,30.65939 0.95587,7.32162 0.95587,-2.79942 0.95586,-11.82032 2.23036,-43.86859 1.27449,-19.47876 0.95587,-6.0487 0.95586,2.44133 0.95587,9.94674 4.14209,56.58158 1.27449,-1.22866 0.95587,-8.22211 4.14209,-46.03661 1.27449,1.07895 0.95586,6.6763 4.14209,36.79809 1.27449,-0.92483 0.95587,-5.32525 3.82347,-28.10872 0.63724,-1.1772 0.95587,1.16421 0.95587,4.17248 3.50484,20.80412 0.63725,1.48792 1.27449,-0.63411 1.27449,-4.65053 2.8676,-13.46408 0.63724,-1.55124 1.27449,-0.38584 0.63725,1.09967 1.59311,5.26203 2.23036,7.63773 0.63724,1.14057 1.27449,0.26265 1.59311,-2.94335 2.54898,-6.76681 0.63725,-1.05289 1.27449,-0.66589 1.27448,1.18609 4.46072,7.13129 1.27449,-0.22985 2.23035,-2.73594 1.91174,-2.35647 1.27449,-0.56593 1.27449,0.39664 3.82347,3.36762 1.27448,0.38531 1.27449,-0.27834 3.82347,-2.30269 1.27449,-0.25767 2.54898,0.69753 2.54898,1.0411 2.54898,0.0394 5.09796,-1.12996 2.54897,0.30576 0,0" />
        </g>
      </g>
      <g
         id="g5640">
        <g
           clip-path="url(#clipPath5644)"
           id="g5642">
          <path
             id="path5648"
             style="fill:none;stroke:#000000;stroke-width:0.5;stroke-linecap:butt;stroke-linejoin:round;stroke-miterlimit:10;stroke-opacity:1;stroke-dasharray:1, 3;stroke-dashoffset:0"
             d="m 77.629473,39.348105 0,224.711895" />
        </g>
      </g>
      <path
         id="path5650"
         style="fill:none;stroke:#000000;stroke-width:0.5;stroke-linecap:butt;stroke-linejoin:round;stroke-miterlimit:10;stroke-opacity:1;stroke-dasharray:none"
         d="m 77.629473,39.348105 0,4" />
      <path
         id="path5652"
         style="fill:none;stroke:#000000;stroke-width:0.5;stroke-linecap:butt;stroke-linejoin:round;stroke-miterlimit:10;stroke-opacity:1;stroke-dasharray:none"
         d="m 77.629473,264.06 0,-4" />
      <text
         id="text5654"
         transform="matrix(1,0,0,-1,74.606035,26.441855)">
        <tspan
           id="tspan5656"
           y="0"
           x="0"
           style="font-size:12px;font-variant:normal;font-weight:normal;writing-mode:lr-tb;fill:#000000;fill-opacity:1;fill-rule:nonzero;stroke:none;font-family:Bitstream Vera Sans;-inkscape-font-specification:BitstreamVeraSans-Roman">0</tspan>
      </text>
      <g
         id="g5658">
        <g
           clip-path="url(#clipPath5662)"
           id="g5660">
          <path
             id="path5666"
             style="fill:none;stroke:#000000;stroke-width:0.5;stroke-linecap:butt;stroke-linejoin:round;stroke-miterlimit:10;stroke-opacity:1;stroke-dasharray:1, 3;stroke-dashoffset:0"
             d="m 141.35394,39.348105 0,224.711895" />
        </g>
      </g>
      <path
         id="path5668"
         style="fill:none;stroke:#000000;stroke-width:0.5;stroke-linecap:butt;stroke-linejoin:round;stroke-miterlimit:10;stroke-opacity:1;stroke-dasharray:none"
         d="m 141.35394,39.348105 0,4" />
      <path
         id="path5670"
         style="fill:none;stroke:#000000;stroke-width:0.5;stroke-linecap:butt;stroke-linejoin:round;stroke-miterlimit:10;stroke-opacity:1;stroke-dasharray:none"
         d="m 141.35394,264.06 0,-4" />
      <text
         id="text5672"
         transform="matrix(1,0,0,-1,130.72894,26.441855)">
        <tspan
           id="tspan5674"
           sodipodi:role="line"
           y="0"
           x="0 7.632 15.264"
           style="font-size:12px;font-variant:normal;font-weight:normal;writing-mode:lr-tb;fill:#000000;fill-opacity:1;fill-rule:nonzero;stroke:none;font-family:Bitstream Vera Sans;-inkscape-font-specification:BitstreamVeraSans-Roman">200</tspan>
      </text>
      <g
         id="g5676">
        <g
           clip-path="url(#clipPath5680)"
           id="g5678">
          <path
             id="path5684"
             style="fill:none;stroke:#000000;stroke-width:0.5;stroke-linecap:butt;stroke-linejoin:round;stroke-miterlimit:10;stroke-opacity:1;stroke-dasharray:1, 3;stroke-dashoffset:0"
             d="m 205.07842,39.348105 0,224.711895" />
        </g>
      </g>
      <path
         id="path5686"
         style="fill:none;stroke:#000000;stroke-width:0.5;stroke-linecap:butt;stroke-linejoin:round;stroke-miterlimit:10;stroke-opacity:1;stroke-dasharray:none"
         d="m 205.07842,39.348105 0,4" />
      <path
         id="path5688"
         style="fill:none;stroke:#000000;stroke-width:0.5;stroke-linecap:butt;stroke-linejoin:round;stroke-miterlimit:10;stroke-opacity:1;stroke-dasharray:none"
         d="m 205.07842,264.06 0,-4" />
      <text
         id="text5690"
         transform="matrix(1,0,0,-1,194.31279,26.441855)">
        <tspan
           id="tspan5692"
           sodipodi:role="line"
           y="0"
           x="0 7.632 15.264"
           style="font-size:12px;font-variant:normal;font-weight:normal;writing-mode:lr-tb;fill:#000000;fill-opacity:1;fill-rule:nonzero;stroke:none;font-family:Bitstream Vera Sans;-inkscape-font-specification:BitstreamVeraSans-Roman">400</tspan>
      </text>
      <g
         id="g5694">
        <g
           clip-path="url(#clipPath5698)"
           id="g5696">
          <path
             id="path5702"
             style="fill:none;stroke:#000000;stroke-width:0.5;stroke-linecap:butt;stroke-linejoin:round;stroke-miterlimit:10;stroke-opacity:1;stroke-dasharray:1, 3;stroke-dashoffset:0"
             d="m 268.80289,39.348105 0,224.711895" />
        </g>
      </g>
      <path
         id="path5704"
         style="fill:none;stroke:#000000;stroke-width:0.5;stroke-linecap:butt;stroke-linejoin:round;stroke-miterlimit:10;stroke-opacity:1;stroke-dasharray:none"
         d="m 268.80289,39.348105 0,4" />
      <path
         id="path5706"
         style="fill:none;stroke:#000000;stroke-width:0.5;stroke-linecap:butt;stroke-linejoin:round;stroke-miterlimit:10;stroke-opacity:1;stroke-dasharray:none"
         d="m 268.80289,264.06 0,-4" />
      <text
         id="text5708"
         transform="matrix(1,0,0,-1,258.16226,26.441855)">
        <tspan
           id="tspan5710"
           sodipodi:role="line"
           y="0"
           x="0 7.632 15.264"
           style="font-size:12px;font-variant:normal;font-weight:normal;writing-mode:lr-tb;fill:#000000;fill-opacity:1;fill-rule:nonzero;stroke:none;font-family:Bitstream Vera Sans;-inkscape-font-specification:BitstreamVeraSans-Roman">600</tspan>
      </text>
      <g
         id="g5712">
        <g
           clip-path="url(#clipPath5716)"
           id="g5714">
          <path
             id="path5720"
             style="fill:none;stroke:#000000;stroke-width:0.5;stroke-linecap:butt;stroke-linejoin:round;stroke-miterlimit:10;stroke-opacity:1;stroke-dasharray:1, 3;stroke-dashoffset:0"
             d="m 332.52736,39.348105 0,224.711895" />
        </g>
      </g>
      <path
         id="path5722"
         style="fill:none;stroke:#000000;stroke-width:0.5;stroke-linecap:butt;stroke-linejoin:round;stroke-miterlimit:10;stroke-opacity:1;stroke-dasharray:none"
         d="m 332.52736,39.348105 0,4" />
      <path
         id="path5724"
         style="fill:none;stroke:#000000;stroke-width:0.5;stroke-linecap:butt;stroke-linejoin:round;stroke-miterlimit:10;stroke-opacity:1;stroke-dasharray:none"
         d="m 332.52736,264.06 0,-4" />
      <text
         id="text5726"
         transform="matrix(1,0,0,-1,321.87111,26.441855)">
        <tspan
           id="tspan5728"
           sodipodi:role="line"
           y="0"
           x="0 7.632 15.264"
           style="font-size:12px;font-variant:normal;font-weight:normal;writing-mode:lr-tb;fill:#000000;fill-opacity:1;fill-rule:nonzero;stroke:none;font-family:Bitstream Vera Sans;-inkscape-font-specification:BitstreamVeraSans-Roman">800</tspan>
      </text>
      <g
         id="g5730">
        <g
           clip-path="url(#clipPath5734)"
           id="g5732">
          <path
             id="path5738"
             style="fill:none;stroke:#000000;stroke-width:0.5;stroke-linecap:butt;stroke-linejoin:round;stroke-miterlimit:10;stroke-opacity:1;stroke-dasharray:1, 3;stroke-dashoffset:0"
             d="m 396.25183,39.348105 0,224.711895" />
        </g>
      </g>
      <path
         id="path5740"
         style="fill:none;stroke:#000000;stroke-width:0.5;stroke-linecap:butt;stroke-linejoin:round;stroke-miterlimit:10;stroke-opacity:1;stroke-dasharray:none"
         d="m 396.25183,39.348105 0,4" />
      <path
         id="path5742"
         style="fill:none;stroke:#000000;stroke-width:0.5;stroke-linecap:butt;stroke-linejoin:round;stroke-miterlimit:10;stroke-opacity:1;stroke-dasharray:none"
         d="m 396.25183,264.06 0,-4" />
      <text
         id="text5744"
         transform="matrix(1,0,0,-1,382.02527,26.441855)">
        <tspan
           id="tspan5746"
           sodipodi:role="line"
           y="0"
           x="0 7.632 15.264 22.896"
           style="font-size:12px;font-variant:normal;font-weight:normal;writing-mode:lr-tb;fill:#000000;fill-opacity:1;fill-rule:nonzero;stroke:none;font-family:Bitstream Vera Sans;-inkscape-font-specification:BitstreamVeraSans-Roman">1000</tspan>
      </text>
      <text
         id="text5748"
         transform="matrix(1,0,0,-1,214.99228,12.14498)">
        <tspan
           id="tspan5750"
           sodipodi:role="line"
           y="0"
           x="0 7.6199999 14.976 26.664 34.284 37.619999"
           style="font-size:12px;font-variant:normal;font-weight:normal;writing-mode:lr-tb;fill:#000000;fill-opacity:1;fill-rule:nonzero;stroke:none;font-family:Bitstream Vera Sans;-inkscape-font-specification:BitstreamVeraSans-Roman">Sample</tspan>
      </text>
      <g
         id="g5752">
        <g
           clip-path="url(#clipPath5756)"
           id="g5754">
          <path
             id="path5760"
             style="fill:none;stroke:#000000;stroke-width:0.5;stroke-linecap:butt;stroke-linejoin:round;stroke-miterlimit:10;stroke-opacity:1;stroke-dasharray:1, 3;stroke-dashoffset:0"
             d="m 61.714286,49.335048 350.134114,0" />
        </g>
      </g>
      <path
         id="path5762"
         style="fill:none;stroke:#000000;stroke-width:0.5;stroke-linecap:butt;stroke-linejoin:round;stroke-miterlimit:10;stroke-opacity:1;stroke-dasharray:none"
         d="m 61.714286,49.335048 4,0" />
      <path
         id="path5764"
         style="fill:none;stroke:#000000;stroke-width:0.5;stroke-linecap:butt;stroke-linejoin:round;stroke-miterlimit:10;stroke-opacity:1;stroke-dasharray:none"
         d="m 411.8484,49.335048 -4,0" />
      <g
         transform="translate(30.620536,44.795985)"
         id="g5766">
        <text
           id="text5768"
           transform="matrix(1,0,0,-1,10.054688,0.171875)">
          <tspan
             id="tspan5770"
             sodipodi:role="line"
             y="0"
             x="0 7.632 11.448"
             style="font-size:12px;font-variant:normal;font-weight:normal;writing-mode:lr-tb;fill:#000000;fill-opacity:1;fill-rule:nonzero;stroke:none;font-family:Bitstream Vera Sans;-inkscape-font-specification:BitstreamVeraSans-Roman">1.0</tspan>
        </text>
        <g
           transform="scale(0.012,0.012)"
           id="g5772">
          <g
             id="g5774">
            <g
               clip-path="url(#clipPath5778)"
               id="g5776">
              <path
                 id="path5782"
                 style="fill:#000000;fill-opacity:1;fill-rule:nonzero;stroke:none"
                 d="m 106,355 626,0 0,-83 -626,0 0,83" />
            </g>
          </g>
        </g>
      </g>
      <g
         id="g5784">
        <g
           clip-path="url(#clipPath5788)"
           id="g5786">
          <path
             id="path5792"
             style="fill:none;stroke:#000000;stroke-width:0.5;stroke-linecap:butt;stroke-linejoin:round;stroke-miterlimit:10;stroke-opacity:1;stroke-dasharray:1, 3;stroke-dashoffset:0"
             d="m 61.714286,100.51955 350.134114,0" />
        </g>
      </g>
      <path
         id="path5794"
         style="fill:none;stroke:#000000;stroke-width:0.5;stroke-linecap:butt;stroke-linejoin:round;stroke-miterlimit:10;stroke-opacity:1;stroke-dasharray:none"
         d="m 61.714286,100.51955 4,0" />
      <path
         id="path5796"
         style="fill:none;stroke:#000000;stroke-width:0.5;stroke-linecap:butt;stroke-linejoin:round;stroke-miterlimit:10;stroke-opacity:1;stroke-dasharray:none"
         d="m 411.8484,100.51955 -4,0" />
      <g
         transform="translate(30.870536,95.980488)"
         id="g5798">
        <text
           id="text5800"
           transform="matrix(1,0,0,-1,10.054688,0.171875)">
          <tspan
             id="tspan5802"
             sodipodi:role="line"
             y="0"
             x="0 7.632 11.448"
             style="font-size:12px;font-variant:normal;font-weight:normal;writing-mode:lr-tb;fill:#000000;fill-opacity:1;fill-rule:nonzero;stroke:none;font-family:Bitstream Vera Sans;-inkscape-font-specification:BitstreamVeraSans-Roman">0.5</tspan>
        </text>
        <g
           transform="scale(0.012,0.012)"
           id="g5804">
          <g
             id="g5806">
            <g
               clip-path="url(#clipPath5810)"
               id="g5808">
              <path
                 id="path5814"
                 style="fill:#000000;fill-opacity:1;fill-rule:nonzero;stroke:none"
                 d="m 106,355 626,0 0,-83 -626,0 0,83" />
            </g>
          </g>
        </g>
      </g>
      <g
         id="g5816">
        <g
           clip-path="url(#clipPath5820)"
           id="g5818">
          <path
             id="path5824"
             style="fill:none;stroke:#000000;stroke-width:0.5;stroke-linecap:butt;stroke-linejoin:round;stroke-miterlimit:10;stroke-opacity:1;stroke-dasharray:1, 3;stroke-dashoffset:0"
             d="m 61.714286,151.70405 350.134114,0" />
        </g>
      </g>
      <path
         id="path5826"
         style="fill:none;stroke:#000000;stroke-width:0.5;stroke-linecap:butt;stroke-linejoin:round;stroke-miterlimit:10;stroke-opacity:1;stroke-dasharray:none"
         d="m 61.714286,151.70405 4,0" />
      <path
         id="path5828"
         style="fill:none;stroke:#000000;stroke-width:0.5;stroke-linecap:butt;stroke-linejoin:round;stroke-miterlimit:10;stroke-opacity:1;stroke-dasharray:none"
         d="m 411.8484,151.70405 -4,0" />
      <text
         id="text5830"
         transform="matrix(1,0,0,-1,40.214286,147.33686)">
        <tspan
           id="tspan5832"
           sodipodi:role="line"
           y="0"
           x="0 7.632 11.448"
           style="font-size:12px;font-variant:normal;font-weight:normal;writing-mode:lr-tb;fill:#000000;fill-opacity:1;fill-rule:nonzero;stroke:none;font-family:Bitstream Vera Sans;-inkscape-font-specification:BitstreamVeraSans-Roman">0.0</tspan>
      </text>
      <g
         id="g5834">
        <g
           clip-path="url(#clipPath5838)"
           id="g5836">
          <path
             id="path5842"
             style="fill:none;stroke:#000000;stroke-width:0.5;stroke-linecap:butt;stroke-linejoin:round;stroke-miterlimit:10;stroke-opacity:1;stroke-dasharray:1, 3;stroke-dashoffset:0"
             d="m 61.714286,202.88855 350.134114,0" />
        </g>
      </g>
      <path
         id="path5844"
         style="fill:none;stroke:#000000;stroke-width:0.5;stroke-linecap:butt;stroke-linejoin:round;stroke-miterlimit:10;stroke-opacity:1;stroke-dasharray:none"
         d="m 61.714286,202.88855 4,0" />
      <path
         id="path5846"
         style="fill:none;stroke:#000000;stroke-width:0.5;stroke-linecap:butt;stroke-linejoin:round;stroke-miterlimit:10;stroke-opacity:1;stroke-dasharray:none"
         d="m 411.8484,202.88855 -4,0" />
      <text
         id="text5848"
         transform="matrix(1,0,0,-1,40.464286,198.52137)">
        <tspan
           id="tspan5850"
           sodipodi:role="line"
           y="0"
           x="0 7.632 11.448"
           style="font-size:12px;font-variant:normal;font-weight:normal;writing-mode:lr-tb;fill:#000000;fill-opacity:1;fill-rule:nonzero;stroke:none;font-family:Bitstream Vera Sans;-inkscape-font-specification:BitstreamVeraSans-Roman">0.5</tspan>
      </text>
      <g
         id="g5852">
        <g
           clip-path="url(#clipPath5856)"
           id="g5854">
          <path
             id="path5860"
             style="fill:none;stroke:#000000;stroke-width:0.5;stroke-linecap:butt;stroke-linejoin:round;stroke-miterlimit:10;stroke-opacity:1;stroke-dasharray:1, 3;stroke-dashoffset:0"
             d="m 61.714286,254.07306 350.134114,0" />
        </g>
      </g>
      <path
         id="path5862"
         style="fill:none;stroke:#000000;stroke-width:0.5;stroke-linecap:butt;stroke-linejoin:round;stroke-miterlimit:10;stroke-opacity:1;stroke-dasharray:none"
         d="m 61.714286,254.07306 4,0" />
      <path
         id="path5864"
         style="fill:none;stroke:#000000;stroke-width:0.5;stroke-linecap:butt;stroke-linejoin:round;stroke-miterlimit:10;stroke-opacity:1;stroke-dasharray:none"
         d="m 411.8484,254.07306 -4,0" />
      <text
         id="text5866"
         transform="matrix(1,0,0,-1,40.729911,249.70587)">
        <tspan
           id="tspan5868"
           sodipodi:role="line"
           y="0"
           x="0 7.632 11.448"
           style="font-size:12px;font-variant:normal;font-weight:normal;writing-mode:lr-tb;fill:#000000;fill-opacity:1;fill-rule:nonzero;stroke:none;font-family:Bitstream Vera Sans;-inkscape-font-specification:BitstreamVeraSans-Roman">1.0</tspan>
      </text>
      <text
         id="text5870"
         transform="matrix(0,1,1,0,23.120536,121.32124)">
        <tspan
           id="tspan5872"
           sodipodi:role="line"
           y="0"
           x="0 8.2080002 19.896 27.516001 30.851999 34.188 38.891998 46.5 54.119999"
           style="font-size:12px;font-variant:normal;font-weight:normal;writing-mode:lr-tb;fill:#000000;fill-opacity:1;fill-rule:nonzero;stroke:none;font-family:Bitstream Vera Sans;-inkscape-font-specification:BitstreamVeraSans-Roman">Amplitude</tspan>
      </text>
      <path
         id="path5874"
         style="fill:none;stroke:#000000;stroke-width:1;stroke-linecap:square;stroke-linejoin:round;stroke-miterlimit:10;stroke-opacity:1;stroke-dasharray:none"
         d="m 61.714286,264.06 350.134114,0" />
      <path
         id="path5876"
         style="fill:none;stroke:#000000;stroke-width:1;stroke-linecap:square;stroke-linejoin:round;stroke-miterlimit:10;stroke-opacity:1;stroke-dasharray:none"
         d="m 411.8484,39.348105 0,224.711895" />
      <path
         id="path5878"
         style="fill:none;stroke:#000000;stroke-width:1;stroke-linecap:square;stroke-linejoin:round;stroke-miterlimit:10;stroke-opacity:1;stroke-dasharray:none"
         d="m 61.714286,39.348105 350.134114,0" />
      <path
         id="path5880"
         style="fill:none;stroke:#000000;stroke-width:1;stroke-linecap:square;stroke-linejoin:round;stroke-miterlimit:10;stroke-opacity:1;stroke-dasharray:none"
         d="m 61.714286,39.348105 0,224.711895" />
      <text
         id="text5882"
         transform="matrix(1,0,0,-1,215.56259,269.26312)">
        <tspan
           id="tspan5884"
           sodipodi:role="line"
           y="0"
           x="0 9.8783998 19.007999 24.076799 29.145599 38.001598"
           style="font-size:14.39999962px;font-variant:normal;font-weight:normal;writing-mode:lr-tb;fill:#000000;fill-opacity:1;fill-rule:nonzero;stroke:none;font-family:Bitstream Vera Sans;-inkscape-font-specification:BitstreamVeraSans-Roman">Buffer</tspan>
      </text>
    </g>
    <path
       style="fill:none;stroke:#000000;stroke-width:0.56898904px;stroke-linecap:butt;stroke-linejoin:miter;stroke-opacity:1"
       d="m 186.13646,135.33604 0,31.2944"
       id="path4140" />
    <path
       style="fill:none;stroke:#000000;stroke-width:0.41593948px;stroke-linecap:butt;stroke-linejoin:miter;stroke-opacity:1"
       d="m 186.13646,242.458 0,16.72319"
       id="path4140-9" />
    <path
       style="fill:none;stroke:#000000;stroke-width:0.7112363px;stroke-linecap:butt;stroke-linejoin:miter;stroke-opacity:1"
       d="m 243.56576,295.22195 114.50904,0"
       id="path4900" />
    <path
       style="fill:none;stroke:#000000;stroke-width:0.7112363px;stroke-linecap:butt;stroke-linejoin:miter;stroke-opacity:1;marker-end:url(#Arrow1Lend)"
       d="m 356.65233,296.64442 0,-91.74948"
       id="path4902" />
  </g>
</svg>
